<svg width="234" height="234" viewBox="0 0 234 234" fill="none" xmlns="http://www.w3.org/2000/svg">
<g clip-path="url(#clip0_46_2)">
<path d="M6 6H12V12H6V6ZM12 6H18V12H12V6ZM18 6H24V12H18V6ZM24 6H30V12H24V6ZM30 6H36V12H30V6ZM36 6H42V12H36V6ZM42 6H48V12H42V6ZM60 6H66V12H60V6ZM84 6H90V12H84V6ZM102 6H108V12H102V6ZM120 6H126V12H120V6ZM138 6H144V12H138V6ZM144 6H150V12H144V6ZM150 6H156V12H150V6ZM174 6H180V12H174V6ZM186 6H192V12H186V6ZM192 6H198V12H192V6ZM198 6H204V12H198V6ZM204 6H210V12H204V6ZM210 6H216V12H210V6ZM216 6H222V12H216V6ZM222 6H228V12H222V6ZM6 12H12V18H6V12ZM42 12H48V18H42V12ZM54 12H60V18H54V12ZM60 12H66V18H60V12ZM72 12H78V18H72V12ZM78 12H84V18H78V12ZM90 12H96V18H90V12ZM96 12H102V18H96V12ZM102 12H108V18H102V12ZM132 12H138V18H132V12ZM162 12H168V18H162V12ZM168 12H174V18H168V12ZM174 12H180V18H174V12ZM186 12H192V18H186V12ZM222 12H228V18H222V12ZM6 18H12V24H6V18ZM18 18H24V24H18V18ZM24 18H30V24H24V18ZM30 18H36V24H30V18ZM42 18H48V24H42V18ZM60 18H66V24H60V18ZM66 18H72V24H66V18ZM72 18H78V24H72V18ZM90 18H96V24H90V18ZM132 18H138V24H132V18ZM162 18H168V24H162V18ZM174 18H180V24H174V18ZM186 18H192V24H186V18ZM198 18H204V24H198V18ZM204 18H210V24H204V18ZM210 18H216V24H210V18ZM222 18H228V24H222V18ZM6 24H12V30H6V24ZM18 24H24V30H18V24ZM24 24H30V30H24V24ZM30 24H36V30H30V24ZM42 24H48V30H42V24ZM54 24H60V30H54V24ZM60 24H66V30H60V24ZM72 24H78V30H72V24ZM84 24H90V30H84V24ZM90 24H96V30H90V24ZM120 24H126V30H120V24ZM138 24H144V30H138V24ZM150 24H156V30H150V24ZM156 24H162V30H156V24ZM186 24H192V30H186V24ZM198 24H204V30H198V24ZM204 24H210V30H204V24ZM210 24H216V30H210V24ZM222 24H228V30H222V24ZM6 30H12V36H6V30ZM18 30H24V36H18V30ZM24 30H30V36H24V30ZM30 30H36V36H30V30ZM42 30H48V36H42V30ZM66 30H72V36H66V30ZM78 30H84V36H78V30ZM102 30H108V36H102V30ZM120 30H126V36H120V30ZM126 30H132V36H126V30ZM132 30H138V36H132V30ZM144 30H150V36H144V30ZM156 30H162V36H156V30ZM186 30H192V36H186V30ZM198 30H204V36H198V30ZM204 30H210V36H204V30ZM210 30H216V36H210V30ZM222 30H228V36H222V30ZM6 36H12V42H6V36ZM42 36H48V42H42V36ZM54 36H60V42H54V36ZM66 36H72V42H66V36ZM96 36H102V42H96V36ZM108 36H114V42H108V36ZM114 36H120V42H114V36ZM126 36H132V42H126V36ZM132 36H138V42H132V36ZM138 36H144V42H138V36ZM150 36H156V42H150V36ZM156 36H162V42H156V36ZM162 36H168V42H162V36ZM168 36H174V42H168V36ZM186 36H192V42H186V36ZM222 36H228V42H222V36ZM6 42H12V48H6V42ZM12 42H18V48H12V42ZM18 42H24V48H18V42ZM24 42H30V48H24V42ZM30 42H36V48H30V42ZM36 42H42V48H36V42ZM42 42H48V48H42V42ZM54 42H60V48H54V42ZM66 42H72V48H66V42ZM78 42H84V48H78V42ZM90 42H96V48H90V42ZM102 42H108V48H102V42ZM114 42H120V48H114V42ZM126 42H132V48H126V42ZM138 42H144V48H138V42ZM150 42H156V48H150V42ZM162 42H168V48H162V42ZM174 42H180V48H174V42ZM186 42H192V48H186V42ZM192 42H198V48H192V42ZM198 42H204V48H198V42ZM204 42H210V48H204V42ZM210 42H216V48H210V42ZM216 42H222V48H216V42ZM222 42H228V48H222V42ZM78 48H84V54H78V48ZM90 48H96V54H90V48ZM96 48H102V54H96V48ZM102 48H108V54H102V48ZM114 48H120V54H114V48ZM120 48H126V54H120V48ZM126 48H132V54H126V48ZM132 48H138V54H132V48ZM144 48H150V54H144V48ZM150 48H156V54H150V48ZM162 48H168V54H162V48ZM168 48H174V54H168V48ZM174 48H180V54H174V48ZM6 54H12V60H6V54ZM12 54H18V60H12V54ZM18 54H24V60H18V54ZM24 54H30V60H24V54ZM30 54H36V60H30V54ZM42 54H48V60H42V54ZM48 54H54V60H48V54ZM54 54H60V60H54V54ZM60 54H66V60H60V54ZM66 54H72V60H66V54ZM78 54H84V60H78V54ZM84 54H90V60H84V54ZM90 54H96V60H90V54ZM96 54H102V60H96V54ZM138 54H144V60H138V54ZM144 54H150V60H144V54ZM156 54H162V60H156V54ZM168 54H174V60H168V54ZM180 54H186V60H180V54ZM192 54H198V60H192V54ZM204 54H210V60H204V54ZM216 54H222V60H216V54ZM6 60H12V66H6V60ZM24 60H30V66H24V60ZM54 60H60V66H54V60ZM60 60H66V66H60V60ZM84 60H90V66H84V60ZM90 60H96V66H90V60ZM96 60H102V66H96V60ZM102 60H108V66H102V60ZM108 60H114V66H108V60ZM120 60H126V66H120V60ZM126 60H132V66H126V60ZM132 60H138V66H132V60ZM162 60H168V66H162V60ZM174 60H180V66H174V60ZM192 60H198V66H192V60ZM204 60H210V66H204V60ZM210 60H216V66H210V60ZM216 60H222V66H216V60ZM6 66H12V72H6V66ZM18 66H24V72H18V66ZM24 66H30V72H24V66ZM42 66H48V72H42V66ZM72 66H78V72H72V66ZM78 66H84V72H78V66ZM96 66H102V72H96V66ZM102 66H108V72H102V66ZM108 66H114V72H108V66ZM132 66H138V72H132V66ZM138 66H144V72H138V66ZM150 66H156V72H150V66ZM168 66H174V72H168V66ZM174 66H180V72H174V66ZM180 66H186V72H180V66ZM186 66H192V72H186V66ZM204 66H210V72H204V66ZM210 66H216V72H210V66ZM222 66H228V72H222V66ZM6 72H12V78H6V72ZM18 72H24V78H18V72ZM24 72H30V78H24V72ZM36 72H42V78H36V72ZM48 72H54V78H48V72ZM54 72H60V78H54V72ZM60 72H66V78H60V72ZM72 72H78V78H72V72ZM90 72H96V78H90V72ZM132 72H138V78H132V72ZM138 72H144V78H138V72ZM144 72H150V78H144V72ZM150 72H156V78H150V72ZM162 72H168V78H162V72ZM174 72H180V78H174V72ZM180 72H186V78H180V72ZM186 72H192V78H186V72ZM192 72H198V78H192V72ZM198 72H204V78H198V72ZM204 72H210V78H204V72ZM216 72H222V78H216V72ZM12 78H18V84H12V78ZM18 78H24V84H18V78ZM24 78H30V84H24V78ZM42 78H48V84H42V78ZM48 78H54V84H48V78ZM54 78H60V84H54V78ZM60 78H66V84H60V78ZM72 78H78V84H72V78ZM84 78H90V84H84V78ZM90 78H96V84H90V78ZM96 78H102V84H96V78ZM108 78H114V84H108V78ZM126 78H132V84H126V78ZM132 78H138V84H132V78ZM138 78H144V84H138V78ZM144 78H150V84H144V78ZM150 78H156V84H150V78ZM162 78H168V84H162V78ZM186 78H192V84H186V78ZM198 78H204V84H198V78ZM204 78H210V84H204V78ZM210 78H216V84H210V78ZM222 78H228V84H222V78ZM6 84H12V90H6V84ZM24 84H30V90H24V84ZM30 84H36V90H30V84ZM66 84H72V90H66V84ZM78 84H84V90H78V84ZM96 84H102V90H96V84ZM102 84H108V90H102V84ZM120 84H126V90H120V84ZM138 84H144V90H138V84ZM144 84H150V90H144V84ZM192 84H198V90H192V84ZM210 84H216V90H210V84ZM216 84H222V90H216V84ZM6 90H12V96H6V90ZM18 90H24V96H18V90ZM24 90H30V96H24V90ZM30 90H36V96H30V90ZM36 90H42V96H36V90ZM42 90H48V96H42V90ZM54 90H60V96H54V90ZM84 90H90V96H84V90ZM90 90H96V96H90V90ZM96 90H102V96H96V90ZM156 90H162V96H156V90ZM162 90H168V96H162V90ZM168 90H174V96H168V90ZM174 90H180V96H174V90ZM180 90H186V96H180V90ZM192 90H198V96H192V90ZM198 90H204V96H198V90ZM210 90H216V96H210V90ZM216 90H222V96H216V90ZM222 90H228V96H222V90ZM12 96H18V102H12V96ZM18 96H24V102H18V96ZM24 96H30V102H24V96ZM48 96H54V102H48V96ZM60 96H66V102H60V96ZM78 96H84V102H78V96ZM90 96H96V102H90V96ZM96 96H102V102H96V96ZM114 96H120V102H114V96ZM120 96H126V102H120V96ZM126 96H132V102H126V96ZM132 96H138V102H132V96ZM144 96H150V102H144V96ZM192 96H198V102H192V96ZM204 96H210V102H204V96ZM222 96H228V102H222V96ZM6 102H12V108H6V102ZM12 102H18V108H12V102ZM18 102H24V108H18V102ZM42 102H48V108H42V102ZM54 102H60V108H54V102ZM60 102H66V108H60V102ZM66 102H72V108H66V102ZM78 102H84V108H78V102ZM84 102H90V108H84V102ZM96 102H102V108H96V102ZM102 102H108V108H102V102ZM108 102H114V108H108V102ZM114 102H120V108H114V102ZM126 102H132V108H126V102ZM138 102H144V108H138V102ZM162 102H168V108H162V102ZM168 102H174V108H168V102ZM174 102H180V108H174V102ZM180 102H186V108H180V102ZM186 102H192V108H186V102ZM198 102H204V108H198V102ZM204 102H210V108H204V102ZM210 102H216V108H210V102ZM222 102H228V108H222V102ZM6 108H12V114H6V108ZM12 108H18V114H12V108ZM30 108H36V114H30V108ZM48 108H54V114H48V108ZM66 108H72V114H66V108ZM84 108H90V114H84V108ZM96 108H102V114H96V108ZM102 108H108V114H102V108ZM108 108H114V114H108V108ZM120 108H126V114H120V108ZM126 108H132V114H126V108ZM132 108H138V114H132V108ZM138 108H144V114H138V108ZM144 108H150V114H144V108ZM150 108H156V114H150V108ZM174 108H180V114H174V108ZM192 108H198V114H192V108ZM210 108H216V114H210V108ZM216 108H222V114H216V108ZM12 114H18V120H12V114ZM24 114H30V120H24V114ZM30 114H36V120H30V114ZM36 114H42V120H36V114ZM42 114H48V120H42V114ZM48 114H54V120H48V114ZM54 114H60V120H54V114ZM60 114H66V120H60V114ZM66 114H72V120H66V114ZM72 114H78V120H72V114ZM78 114H84V120H78V114ZM84 114H90V120H84V114ZM90 114H96V120H90V114ZM96 114H102V120H96V114ZM114 114H120V120H114V114ZM126 114H132V120H126V114ZM150 114H156V120H150V114ZM168 114H174V120H168V114ZM174 114H180V120H174V114ZM186 114H192V120H186V114ZM192 114H198V120H192V114ZM198 114H204V120H198V114ZM210 114H216V120H210V114ZM216 114H222V120H216V114ZM222 114H228V120H222V114ZM6 120H12V126H6V120ZM54 120H60V126H54V120ZM60 120H66V126H60V120ZM66 120H72V126H66V120ZM72 120H78V126H72V120ZM90 120H96V126H90V120ZM96 120H102V126H96V120ZM102 120H108V126H102V120ZM114 120H120V126H114V120ZM120 120H126V126H120V120ZM126 120H132V126H126V120ZM132 120H138V126H132V120ZM138 120H144V126H138V120ZM144 120H150V126H144V120ZM150 120H156V126H150V120ZM162 120H168V126H162V120ZM168 120H174V126H168V120ZM174 120H180V126H174V120ZM180 120H186V126H180V120ZM192 120H198V126H192V120ZM198 120H204V126H198V120ZM222 120H228V126H222V120ZM6 126H12V132H6V126ZM18 126H24V132H18V126ZM24 126H30V132H24V126ZM30 126H36V132H30V126ZM36 126H42V132H36V126ZM42 126H48V132H42V126ZM54 126H60V132H54V126ZM72 126H78V132H72V126ZM78 126H84V132H78V126ZM84 126H90V132H84V126ZM90 126H96V132H90V126ZM96 126H102V132H96V126ZM102 126H108V132H102V126ZM108 126H114V132H108V126ZM120 126H126V132H120V126ZM126 126H132V132H126V126ZM138 126H144V132H138V126ZM162 126H168V132H162V126ZM180 126H186V132H180V126ZM186 126H192V132H186V126ZM198 126H204V132H198V126ZM204 126H210V132H204V126ZM210 126H216V132H210V126ZM216 126H222V132H216V126ZM222 126H228V132H222V126ZM12 132H18V138H12V132ZM18 132H24V138H18V132ZM48 132H54V138H48V132ZM78 132H84V138H78V132ZM90 132H96V138H90V132ZM114 132H120V138H114V132ZM126 132H132V138H126V132ZM132 132H138V138H132V132ZM138 132H144V138H138V132ZM144 132H150V138H144V132ZM150 132H156V138H150V132ZM156 132H162V138H156V132ZM174 132H180V138H174V132ZM192 132H198V138H192V132ZM216 132H222V138H216V132ZM12 138H18V144H12V138ZM30 138H36V144H30V138ZM42 138H48V144H42V138ZM48 138H54V144H48V138ZM54 138H60V144H54V138ZM66 138H72V144H66V138ZM84 138H90V144H84V138ZM90 138H96V144H90V138ZM96 138H102V144H96V138ZM102 138H108V144H102V138ZM108 138H114V144H108V138ZM114 138H120V144H114V138ZM138 138H144V144H138V138ZM168 138H174V144H168V138ZM180 138H186V144H180V138ZM192 138H198V144H192V138ZM198 138H204V144H198V138ZM204 138H210V144H204V138ZM216 138H222V144H216V138ZM222 138H228V144H222V138ZM6 144H12V150H6V144ZM18 144H24V150H18V144ZM24 144H30V150H24V144ZM30 144H36V150H30V144ZM54 144H60V150H54V144ZM96 144H102V150H96V144ZM102 144H108V150H102V144ZM114 144H120V150H114V144ZM120 144H126V150H120V144ZM126 144H132V150H126V144ZM132 144H138V150H132V144ZM144 144H150V150H144V144ZM162 144H168V150H162V144ZM180 144H186V150H180V144ZM192 144H198V150H192V144ZM198 144H204V150H198V144ZM222 144H228V150H222V144ZM6 150H12V156H6V150ZM18 150H24V156H18V150ZM30 150H36V156H30V150ZM36 150H42V156H36V150ZM42 150H48V156H42V150ZM60 150H66V156H60V150ZM66 150H72V156H66V150ZM72 150H78V156H72V150ZM78 150H84V156H78V150ZM84 150H90V156H84V150ZM90 150H96V156H90V150ZM96 150H102V156H96V150ZM102 150H108V156H102V150ZM120 150H126V156H120V150ZM132 150H138V156H132V150ZM138 150H144V156H138V150ZM150 150H156V156H150V150ZM156 150H162V156H156V150ZM162 150H168V156H162V150ZM168 150H174V156H168V150ZM174 150H180V156H174V150ZM180 150H186V156H180V150ZM186 150H192V156H186V150ZM198 150H204V156H198V150ZM204 150H210V156H204V150ZM210 150H216V156H210V150ZM216 150H222V156H216V150ZM222 150H228V156H222V150ZM6 156H12V162H6V156ZM24 156H30V162H24V156ZM36 156H42V162H36V156ZM48 156H54V162H48V156ZM60 156H66V162H60V156ZM72 156H78V162H72V156ZM84 156H90V162H84V156ZM96 156H102V162H96V156ZM102 156H108V162H102V156ZM108 156H114V162H108V156ZM114 156H120V162H114V156ZM120 156H126V162H120V156ZM126 156H132V162H126V156ZM132 156H138V162H132V156ZM162 156H168V162H162V156ZM174 156H180V162H174V156ZM192 156H198V162H192V156ZM210 156H216V162H210V156ZM216 156H222V162H216V156ZM6 162H12V168H6V162ZM36 162H42V168H36V162ZM42 162H48V168H42V162ZM66 162H72V168H66V162ZM78 162H84V168H78V162ZM96 162H102V168H96V162ZM102 162H108V168H102V162ZM150 162H156V168H150V162ZM168 162H174V168H168V162ZM174 162H180V168H174V162ZM180 162H186V168H180V162ZM192 162H198V168H192V162ZM198 162H204V168H198V162ZM210 162H216V168H210V162ZM216 162H222V168H216V162ZM222 162H228V168H222V162ZM6 168H12V174H6V168ZM18 168H24V174H18V168ZM24 168H30V174H24V168ZM30 168H36V174H30V168ZM48 168H54V174H48V168ZM54 168H60V174H54V168ZM60 168H66V174H60V168ZM72 168H78V174H72V168ZM78 168H84V174H78V168ZM90 168H96V174H90V168ZM102 168H108V174H102V168ZM120 168H126V174H120V168ZM126 168H132V174H126V168ZM132 168H138V174H132V168ZM138 168H144V174H138V168ZM144 168H150V174H144V168ZM150 168H156V174H150V168ZM174 168H180V174H174V168ZM180 168H186V174H180V168ZM186 168H192V174H186V168ZM192 168H198V174H192V168ZM222 168H228V174H222V168ZM6 174H12V180H6V174ZM42 174H48V180H42V174ZM60 174H66V180H60V174ZM66 174H72V180H66V174ZM84 174H90V180H84V174ZM90 174H96V180H90V174ZM126 174H132V180H126V174ZM138 174H144V180H138V174ZM162 174H168V180H162V174ZM174 174H180V180H174V174ZM180 174H186V180H180V174ZM186 174H192V180H186V174ZM192 174H198V180H192V174ZM198 174H204V180H198V174ZM204 174H210V180H204V174ZM210 174H216V180H210V174ZM54 180H60V186H54V180ZM72 180H78V186H72V180ZM102 180H108V186H102V180ZM126 180H132V186H126V180ZM162 180H168V186H162V180ZM168 180H174V186H168V180ZM174 180H180V186H174V180ZM198 180H204V186H198V180ZM204 180H210V186H204V180ZM6 186H12V192H6V186ZM12 186H18V192H12V186ZM18 186H24V192H18V186ZM24 186H30V192H24V186ZM30 186H36V192H30V186ZM36 186H42V192H36V186ZM42 186H48V192H42V186ZM54 186H60V192H54V186ZM60 186H66V192H60V186ZM90 186H96V192H90V186ZM96 186H102V192H96V186ZM102 186H108V192H102V186ZM114 186H120V192H114V186ZM126 186H132V192H126V186ZM132 186H138V192H132V186ZM138 186H144V192H138V186ZM150 186H156V192H150V186ZM174 186H180V192H174V186ZM186 186H192V192H186V186ZM198 186H204V192H198V186ZM210 186H216V192H210V186ZM216 186H222V192H216V186ZM222 186H228V192H222V186ZM6 192H12V198H6V192ZM42 192H48V198H42V192ZM72 192H78V198H72V192ZM90 192H96V198H90V192ZM96 192H102V198H96V192ZM114 192H120V198H114V192ZM132 192H138V198H132V192ZM138 192H144V198H138V192ZM144 192H150V198H144V192ZM162 192H168V198H162V192ZM174 192H180V198H174V192ZM198 192H204V198H198V192ZM216 192H222V198H216V192ZM6 198H12V204H6V198ZM18 198H24V204H18V198ZM24 198H30V204H24V198ZM30 198H36V204H30V198ZM42 198H48V204H42V198ZM54 198H60V204H54V198ZM72 198H78V204H72V198ZM78 198H84V204H78V198ZM84 198H90V204H84V198ZM90 198H96V204H90V198ZM96 198H102V204H96V198ZM102 198H108V204H102V198ZM120 198H126V204H120V198ZM138 198H144V204H138V198ZM150 198H156V204H150V198ZM162 198H168V204H162V198ZM168 198H174V204H168V198ZM174 198H180V204H174V198ZM180 198H186V204H180V198ZM186 198H192V204H186V198ZM192 198H198V204H192V198ZM198 198H204V204H198V198ZM210 198H216V204H210V198ZM222 198H228V204H222V198ZM6 204H12V210H6V204ZM18 204H24V210H18V204ZM24 204H30V210H24V204ZM30 204H36V210H30V204ZM42 204H48V210H42V204ZM54 204H60V210H54V204ZM60 204H66V210H60V204ZM72 204H78V210H72V204ZM90 204H96V210H90V204ZM96 204H102V210H96V204ZM102 204H108V210H102V204ZM108 204H114V210H108V204ZM114 204H120V210H114V204ZM120 204H126V210H120V204ZM126 204H132V210H126V204ZM132 204H138V210H132V204ZM138 204H144V210H138V204ZM144 204H150V210H144V204ZM156 204H162V210H156V204ZM168 204H174V210H168V204ZM174 204H180V210H174V204ZM186 204H192V210H186V204ZM198 204H204V210H198V204ZM204 204H210V210H204V204ZM6 210H12V216H6V210ZM18 210H24V216H18V210ZM24 210H30V216H24V210ZM30 210H36V216H30V210ZM42 210H48V216H42V210ZM54 210H60V216H54V210ZM78 210H84V216H78V210ZM84 210H90V216H84V210ZM90 210H96V216H90V210ZM96 210H102V216H96V210ZM102 210H108V216H102V210ZM108 210H114V216H108V210ZM132 210H138V216H132V210ZM138 210H144V216H138V210ZM162 210H168V216H162V210ZM192 210H198V216H192V210ZM210 210H216V216H210V210ZM216 210H222V216H216V210ZM222 210H228V216H222V210ZM6 216H12V222H6V216ZM42 216H48V222H42V216ZM54 216H60V222H54V216ZM72 216H78V222H72V216ZM90 216H96V222H90V216ZM96 216H102V222H96V216ZM102 216H108V222H102V216ZM120 216H126V222H120V216ZM132 216H138V222H132V216ZM138 216H144V222H138V216ZM144 216H150V222H144V216ZM150 216H156V222H150V216ZM168 216H174V222H168V216ZM174 216H180V222H174V216ZM180 216H186V222H180V216ZM198 216H204V222H198V216ZM204 216H210V222H204V216ZM222 216H228V222H222V216ZM6 222H12V228H6V222ZM12 222H18V228H12V222ZM18 222H24V228H18V222ZM24 222H30V228H24V222ZM30 222H36V228H30V222ZM36 222H42V228H36V222ZM42 222H48V228H42V222ZM54 222H60V228H54V222ZM60 222H66V228H60V222ZM78 222H84V228H78V222ZM84 222H90V228H84V222ZM90 222H96V228H90V222ZM108 222H114V228H108V222ZM114 222H120V228H114V222ZM126 222H132V228H126V222ZM162 222H168V228H162V222ZM180 222H186V228H180V222ZM192 222H198V228H192V222ZM198 222H204V228H198V222ZM204 222H210V228H204V222ZM210 222H216V228H210V222ZM216 222H222V228H216V222ZM222 222H228V228H222V222Z" fill="#7B0CF9"/>
</g>
<defs>
<clipPath id="clip0_46_2">
<rect width="234" height="234" fill="white"/>
</clipPath>
</defs>
</svg>
